<?xml version="1.0" encoding="utf-8"?>
<!-- Generator: Adobe Illustrator 16.0.0, SVG Export Plug-In . SVG Version: 6.00 Build 0)  -->
<!DOCTYPE svg PUBLIC "-//W3C//DTD SVG 1.1//EN" "http://www.w3.org/Graphics/SVG/1.1/DTD/svg11.dtd">
<svg version="1.1" id="Layer_1" xmlns="http://www.w3.org/2000/svg" xmlns:xlink="http://www.w3.org/1999/xlink" x="0px" y="0px"
	 width="16px" height="16px" viewBox="0 0 16 16" enable-background="new 0 0 16 16" xml:space="preserve">
<path display="none" fill="none" stroke="#000000" stroke-miterlimit="10" d="M14.65,5.98c0,5.362-4.177,8.169-6.966,8.083
	C4.105,13.951,0.555,11.84,0.555,7.55c0-3.431,2.865-6.213,6.4-6.213c2.828,0,5.12,2.225,5.12,4.971
	c0,2.196-1.834,3.976-4.096,3.976c-1.81,0-3.277-1.423-3.277-3.181c0-1.406,1.174-2.544,2.622-2.544
	c1.159,0,2.097,0.911,2.097,2.036c0,0.899-0.751,1.629-1.678,1.629c-0.741,0-1.342-0.583-1.342-1.303"/>
<rect fill="#FFFFFF" width="16" height="16"/>
<path display="none" fill="none" stroke="#B1475E" stroke-width="0.8" stroke-miterlimit="10" d="M7.476,1.623
	c3.789,0.123,6.764,3.293,6.642,7.083c-0.115,3.549-3.086,6.334-6.636,6.22c-3.324-0.106-5.934-2.89-5.825-6.214
	c0.099-3.114,2.706-5.558,5.821-5.458c2.917,0.094,5.205,2.537,5.111,5.455c-0.087,2.731-2.374,4.874-5.107,4.787
	c-2.56-0.082-4.567-2.225-4.485-4.785C3.073,6.312,5.08,4.433,7.478,4.51c2.244,0.072,4.006,1.952,3.934,4.199
	c-0.066,2.103-1.826,3.752-3.931,3.684c-1.971-0.062-3.517-1.711-3.453-3.683c0.058-1.846,1.603-3.293,3.45-3.234"/>
<path fill="none" stroke="#B1475E" stroke-width="0.4" stroke-miterlimit="10" d="M7.455,9.933c-0.898-0.222-1.447-1.13-1.225-2.029
	c0.236-0.954,1.2-1.537,2.155-1.301c1.013,0.25,1.632,1.275,1.381,2.289c-0.266,1.077-1.354,1.733-2.43,1.467
	C6.193,10.076,5.495,8.92,5.777,7.777c0.3-1.214,1.527-1.955,2.741-1.655c1.29,0.318,2.077,1.622,1.758,2.911
	c-0.339,1.369-1.723,2.205-3.092,1.867C5.73,10.541,4.843,9.071,5.202,7.617C5.583,6.073,7.145,5.13,8.689,5.511
	c1.64,0.405,2.641,2.063,2.236,3.704c-0.43,1.741-2.191,2.805-3.933,2.375c-1.85-0.457-2.979-2.327-2.522-4.177
	c0.485-1.964,2.472-3.164,4.436-2.679c2.086,0.516,3.36,2.625,2.845,4.711c-0.548,2.216-2.788,3.568-5.003,3.021
	c-2.354-0.581-3.79-2.96-3.208-5.313c0.617-2.5,3.144-4.025,5.643-3.408c2.654,0.656,4.274,3.339,3.619,5.993
	c-0.696,2.818-3.546,4.539-6.365,3.843c-2.994-0.739-4.821-3.766-4.082-6.759c0.785-3.18,3.999-5.12,7.179-4.335
	c3.376,0.834,5.438,4.247,4.604,7.624C13.251,13.697,9.626,15.886,6.04,15c-3.809-0.94-6.133-4.79-5.192-8.599
	c0.999-4.044,5.087-6.514,9.132-5.515c4.296,1.061,6.918,5.403,5.856,9.699c-1.127,4.562-5.738,7.346-10.3,6.22
	c-4.845-1.197-7.802-6.095-6.605-10.939C0.202,0.721,5.403-2.42,10.548-1.149c5.465,1.35,8.8,6.874,7.45,12.338
	c-1.434,5.803-7.3,9.346-13.103,7.912c-6.163-1.522-9.925-7.753-8.403-13.916C-1.891-1.36,4.726-5.355,11.271-3.739
	c6.952,1.717,11.195,8.744,9.479,15.696C18.925,19.34,11.462,23.846,4.08,22.022C-3.761,20.086-8.547,12.16-6.61,4.32
	C-4.554-4.007,3.864-9.09,12.19-7.033C21.034-4.849,26.432,4.09,24.248,12.934c-2.32,9.392-11.814,15.125-21.206,12.805
	C-6.932,23.274-13.02,13.192-10.557,3.218C-7.94-7.375,2.768-13.841,13.36-11.225c11.25,2.779,18.117,14.151,15.339,25.4
	C25.748,26.124,13.67,33.417,1.723,30.466c-12.688-3.134-20.434-15.961-17.3-28.649c3.329-13.475,16.951-21.701,30.426-18.373
	C29.16-13.021,37.896,1.446,34.361,15.757C30.607,30.956,15.243,40.233,0.044,36.479c-16.141-3.987-25.995-20.305-22.007-36.446
	C-17.729-17.109-0.4-27.573,16.742-23.339c18.206,4.497,29.319,22.901,24.822,41.106C36.789,37.103,17.243,48.905-2.091,44.13
	C-22.625,39.058-35.16,18.3-30.088-2.234c5.387-21.808,27.432-35.12,49.24-29.733c23.16,5.72,37.298,29.133,31.577,52.293
	c-6.075,24.596-30.94,39.61-55.537,33.535C-30.93,47.409-46.876,21.003-40.424-5.12c6.852-27.742,34.896-44.677,62.639-37.825
	C51.678-35.667,69.663-5.883,62.386,23.58c-7.729,31.29-39.359,50.391-70.65,42.662C-41.495,58.034-61.78,24.441-53.572-8.79
	c8.717-35.292,44.394-56.835,79.686-48.118c37.48,9.258,60.36,47.147,51.103,84.628c-9.832,39.806-50.071,64.104-89.876,54.271
	c-42.274-10.441-68.08-53.176-57.638-95.45c11.089-44.896,56.475-72.302,101.371-61.213c47.681,11.777,76.786,59.977,65.009,107.658
	c-12.507,50.638-63.696,81.549-114.335,69.041C-72.032,88.744-104.86,34.38-91.577-19.399C-77.47-76.513-19.734-111.377,37.38-97.27
	c60.657,14.982,97.684,76.299,82.701,136.956c-15.911,64.419-81.031,103.741-145.45,87.83
	c-68.414-16.898-110.176-86.057-93.277-154.471c17.946-72.657,91.395-117.009,164.051-99.063
	c77.163,19.06,124.266,97.063,105.207,174.226C130.371,130.157,47.529,180.182-34.42,159.94
	c-87.032-21.497-140.158-109.477-118.662-196.508c22.83-92.43,116.266-148.851,208.696-126.021
	c98.162,24.246,158.083,123.478,133.837,221.64C163.702,163.301,58.315,226.938-45.935,201.188"/>
</svg>
